<svg width="100%" viewBox="0 0 410 68" xmlns="http://www.w3.org/2000/svg">
  <!-- Row 1 -->
  <!-- Dart -->
  <g transform="translate(0, 0)">
    <rect width="76" height="28" fill="#0175C2" rx="3"/>
    <path fill="#ffffff" d="M12 7l4 4-7 10-4-4zM16 11l4 4-10 7-4-4z" transform="scale(0.85) translate(3, 1)"/>
    <text x="30" y="19" font-family="-apple-system,BlinkMacSystemFont,'Segoe UI',Roboto,sans-serif" font-size="12" font-weight="600" fill="#ffffff">Dart</text>
  </g>

  <!-- Flutter -->
  <g transform="translate(84, 0)">
    <rect width="86" height="28" fill="#02569B" rx="3"/>
    <path fill="#ffffff" d="M14 3L5 12l3 3 9-9zM8 12l-3 3 6 6 3-3z"/>
    <text x="28" y="19" font-family="-apple-system,BlinkMacSystemFont,'Segoe UI',Roboto,sans-serif" font-size="12" font-weight="600" fill="#ffffff">Flutter</text>
  </g>

  <!-- JavaScript -->
  <g transform="translate(178, 0)">
    <rect width="106" height="28" fill="#F7DF1E" rx="3"/>
    <rect x="8" y="5" width="16" height="16" fill="#000000" rx="2"/>
    <text x="12" y="17" font-family="sans-serif" font-size="10" font-weight="bold" fill="#F7DF1E">JS</text>
    <text x="30" y="19" font-family="-apple-system,BlinkMacSystemFont,'Segoe UI',Roboto,sans-serif" font-size="12" font-weight="600" fill="#000000">JavaScript</text>
  </g>

  <!-- TypeScript -->
  <g transform="translate(292, 0)">
    <rect width="106" height="28" fill="#3178C6" rx="3"/>
    <rect x="8" y="5" width="16" height="16" fill="#ffffff" rx="2"/>
    <text x="12" y="17" font-family="sans-serif" font-size="10" font-weight="bold" fill="#3178C6">TS</text>
    <text x="30" y="19" font-family="-apple-system,BlinkMacSystemFont,'Segoe UI',Roboto,sans-serif" font-size="12" font-weight="600" fill="#ffffff">TypeScript</text>
  </g>

  <!-- Row 2 -->
  <!-- Python -->
  <g transform="translate(0, 36)">
    <rect width="88" height="28" fill="#3776AB" rx="3"/>
    <circle cx="15" cy="14" r="6" fill="#FFD43B"/>
    <text x="28" y="19" font-family="-apple-system,BlinkMacSystemFont,'Segoe UI',Roboto,sans-serif" font-size="12" font-weight="600" fill="#ffffff">Python</text>
  </g>

  <!-- C++ -->
  <g transform="translate(96, 36)">
    <rect width="72" height="28" fill="#00599C" rx="3"/>
    <text x="12" y="19" font-family="-apple-system,BlinkMacSystemFont,'Segoe UI',Roboto,sans-serif" font-size="12" font-weight="bold" fill="#ffffff">C++</text>
    <text x="40" y="19" font-family="-apple-system,BlinkMacSystemFont,'Segoe UI',Roboto,sans-serif" font-size="12" font-weight="600" fill="#ffffff">C++</text>
  </g>

  <!-- Swift -->
  <g transform="translate(176, 36)">
    <rect width="78" height="28" fill="#FA7343" rx="3"/>
    <text x="12" y="19" font-family="-apple-system,BlinkMacSystemFont,'Segoe UI',Roboto,sans-serif" font-size="12" font-weight="bold" fill="#ffffff">🐦</text>
    <text x="30" y="19" font-family="-apple-system,BlinkMacSystemFont,'Segoe UI',Roboto,sans-serif" font-size="12" font-weight="600" fill="#ffffff">Swift</text>
  </g>

  <!-- Java -->
  <g transform="translate(262, 36)">
    <rect width="72" height="28" fill="#007396" rx="3"/>
    <text x="12" y="19" font-family="-apple-system,BlinkMacSystemFont,'Segoe UI',Roboto,sans-serif" font-size="11" font-weight="bold" fill="#EA2D2E">☕</text>
    <text x="30" y="19" font-family="-apple-system,BlinkMacSystemFont,'Segoe UI',Roboto,sans-serif" font-size="12" font-weight="600" fill="#ffffff">Java</text>
  </g>
</svg>
